<svg width="82" height="77" viewBox="0 0 82 77" fill="none" xmlns="http://www.w3.org/2000/svg">
<g clip-path="url(#clip0_426_68)">
<path d="M9 47.5184H11.4049V38.0063L15.128 46.3016C15.5671 47.3016 16.1688 47.6609 17.3479 47.6609C18.5271 47.6609 19.1052 47.3056 19.5451 46.3016L23.2685 38.0063V47.522H25.6738V38.022C25.6738 37.0952 25.3031 36.647 24.5403 36.4156C22.7135 35.8441 21.4877 36.3384 20.9331 37.5741L17.2795 45.7609L13.7407 37.5706C13.2089 36.3349 11.9603 35.8406 10.1335 36.412C9.36999 36.6438 9 37.092 9 38.0184V47.5184ZM27.6727 39.7734H30.077V45.0163C30.0545 45.3013 30.1682 45.9699 31.4856 45.9902C32.1579 46.0009 36.6733 45.9902 36.7154 45.9902V39.7474H39.125C39.1357 39.7474 39.1225 48.2595 39.1228 48.2959C39.136 50.3952 36.5229 50.8513 35.3189 50.8866H27.7251V49.2652L35.3324 49.2649C36.8801 49.1006 36.6976 48.3302 36.6976 48.0706V47.4384H31.5862C29.208 47.417 27.6938 46.3766 27.6749 45.1802C27.6731 45.0731 27.7262 39.8249 27.6735 39.7731L27.6727 39.7734Z" fill="#00618A"/>
<path d="M40.979 47.5184H47.8933C48.7025 47.5184 49.4891 47.3488 50.114 47.0549C51.1548 46.5763 51.6635 45.9274 51.6635 45.0777V43.317C51.6635 42.6216 51.0853 41.9731 49.9525 41.5406C49.3512 41.3084 48.6112 41.1852 47.8944 41.1852H44.9805C44.0095 41.1852 43.5468 40.8916 43.4313 40.2431C43.4082 40.1659 43.4082 40.1002 43.4082 40.0266V38.9302C43.4082 38.8684 43.4082 38.8063 43.4313 38.7291C43.5468 38.2349 43.8013 38.0956 44.6568 38.0149C44.7263 38.0149 44.8186 37.9991 44.8885 37.9991H51.7565V36.3931H45.004C44.0327 36.3931 43.524 36.4549 43.0614 36.5938C41.6263 37.042 41.0018 37.7563 41.0018 38.992V40.3977C41.0018 41.4791 42.228 42.4059 44.2854 42.622C44.5171 42.6374 44.7481 42.6527 44.979 42.6527H47.4766C47.5693 42.6527 47.662 42.6527 47.7311 42.6684C48.4939 42.7302 48.8183 42.8691 49.0493 43.147C49.1919 43.2899 49.2346 43.4256 49.2346 43.5756V44.9813C49.2346 45.1513 49.1191 45.3677 48.8878 45.5527C48.6796 45.7384 48.3328 45.8616 47.8702 45.8927C47.7775 45.8927 47.7083 45.9081 47.616 45.9081H40.979V47.5145V47.5184ZM66.6659 44.7227C66.6659 46.3756 67.8913 47.3024 70.3658 47.4877C70.5966 47.5056 70.8279 47.5159 71.0594 47.5184H77.3264V45.912H71.0131C69.6026 45.912 69.0705 45.5566 69.0705 44.707V36.3963H66.6655V44.722L66.6659 44.7227ZM53.1976 44.8063V39.0795C53.1976 37.6245 54.217 36.742 56.2331 36.4634C56.4481 36.4327 56.665 36.4171 56.8822 36.417H61.4472C61.672 36.4171 61.8966 36.4326 62.1194 36.4634C64.1355 36.742 65.1549 37.6241 65.1549 39.0795V44.8063C65.1549 45.9866 64.7218 46.6184 63.7238 47.0302L66.0927 49.1731H63.3003L61.3837 47.4395L59.4543 47.562H56.8822C56.442 47.562 55.9786 47.4999 55.4685 47.3606C53.9358 46.9427 53.1976 46.1377 53.1976 44.8063ZM55.7936 44.6634C55.7936 44.7409 55.8168 44.8181 55.8399 44.9113C55.9825 45.577 56.6045 45.9484 57.5509 45.9484H59.7359L57.7291 44.1331H60.5215L62.2681 45.7163C62.5906 45.5441 62.8027 45.2806 62.874 44.9424C62.8972 44.8652 62.8972 44.7877 62.8972 44.7102V39.2191C62.8972 39.1574 62.8972 39.0763 62.874 39.0024C62.7314 38.3834 62.1091 38.0274 61.1823 38.0274H57.5551C56.4858 38.0274 55.7943 38.4916 55.7943 39.2191V44.6677L55.7936 44.6634Z" fill="#E48E00"/>
<path d="M79.4419 33.7312C77.9638 33.6912 76.8342 33.8287 75.8689 34.2366C75.5945 34.3527 75.1571 34.3555 75.1122 34.7002C75.263 34.8584 75.2869 35.0948 75.4063 35.2895C75.6369 35.6634 76.0265 36.1645 76.3733 36.4266C76.7526 36.7134 77.1432 37.0205 77.5506 37.2695C78.2742 37.7116 79.0819 37.9641 79.7784 38.4066C80.1891 38.6673 80.5968 38.9959 80.9975 39.2909C81.1953 39.4366 81.329 39.663 81.5856 39.7541V39.712C81.4502 39.5395 81.4156 39.3023 81.2915 39.1227L80.7451 38.5752C80.2104 37.8609 79.5325 37.2405 78.8114 36.7216C78.2365 36.308 76.9493 35.7495 76.7094 35.0787L76.6674 35.0366C77.0752 34.9902 77.5524 34.8427 77.9292 34.742C78.5612 34.5723 79.1261 34.6159 79.7791 34.4473L80.6621 34.1945V34.0259C80.332 33.6866 80.0967 33.2377 79.7371 32.9309C78.7961 32.1273 77.7684 31.3255 76.7109 30.6559C76.1242 30.2845 75.3991 30.0437 74.7771 29.7291C74.5679 29.6234 74.2004 29.5684 74.0625 29.392C73.736 28.9748 73.5581 28.4455 73.3061 27.9634C72.7786 26.9455 72.2603 25.8334 71.7926 24.7623C71.4736 24.032 71.2651 23.3116 70.868 22.6562C68.9593 19.512 66.9043 17.6141 63.722 15.7491C63.0448 15.3527 62.2296 15.1955 61.3677 14.9909L59.9804 14.9066C59.6981 14.7887 59.4044 14.4423 59.1392 14.2745C58.0848 13.6066 55.3805 12.1555 54.5995 14.0602C54.1065 15.2648 55.3363 16.4402 55.7765 17.0509C56.0852 17.4795 56.4808 17.9591 56.7011 18.4409C56.8462 18.7573 56.8715 19.0748 56.9955 19.4098C57.301 20.2312 57.5669 21.1323 57.9622 21.8948C58.1618 22.2805 58.3821 22.687 58.6348 23.032C58.7899 23.2437 59.0554 23.337 59.0971 23.6641C58.8376 24.0284 58.8227 24.5927 58.6765 25.0541C58.0196 27.1298 58.2673 29.7095 59.2229 31.2459C59.5163 31.7173 60.2067 32.7287 61.1567 32.3409C61.9872 32.0016 61.7983 30.9516 62.0396 30.0245C62.093 29.8137 62.0603 29.6602 62.1658 29.5191V29.5612L62.9225 31.0773C63.4821 31.9809 64.4766 32.9255 65.3185 33.563C65.7552 33.8934 66.1027 34.4648 66.6637 34.658V34.6159H66.6217C66.5123 34.4445 66.3412 34.3741 66.2011 34.2373C65.8721 33.9141 65.506 33.5123 65.234 33.1423C64.4677 32.1002 63.7911 30.9602 63.1745 29.7727C62.8801 29.2059 62.6238 28.5805 62.3761 28.0037C62.2805 27.7812 62.2816 27.4452 62.082 27.3298C61.81 27.7527 61.4094 28.0941 61.1991 28.5934C60.8626 29.3912 60.8191 30.3641 60.6947 31.3734C60.6209 31.3998 60.6537 31.3816 60.6106 31.4155C60.0253 31.2741 59.8193 30.6702 59.6018 30.152C59.0515 28.8412 58.9496 26.732 59.4336 25.2241C59.5584 24.8341 60.1251 23.6048 59.8959 23.2445C59.7865 22.8848 59.4254 22.673 59.2233 22.4016C58.9738 22.0623 58.7236 21.6145 58.5507 21.2223C58.1001 20.2009 57.8898 19.0545 57.4158 18.0212C57.1891 17.5277 56.8062 17.0284 56.4911 16.5927C56.1425 16.107 55.7522 15.7484 55.4824 15.1641C55.3862 14.9552 55.2557 14.6212 55.3983 14.4059C55.4119 14.344 55.4429 14.2873 55.4876 14.2425C55.5323 14.1977 55.5889 14.1667 55.6507 14.153C55.8945 13.9648 56.5738 14.2155 56.8276 14.3216C57.5013 14.6023 58.0645 14.8695 58.6355 15.2484C58.91 15.427 59.1869 15.7827 59.5181 15.8805H59.8959C60.4876 16.017 61.1506 15.9234 61.7031 16.0912C62.6805 16.3887 63.5559 16.852 64.3515 17.3548C66.7746 18.8877 68.7554 21.0698 70.1106 23.6762C70.3287 24.0952 70.4228 24.4955 70.6149 24.9398C71.0024 25.8327 71.4904 26.7587 71.876 27.6352C72.261 28.5102 72.6353 29.3923 73.1792 30.1202C73.4651 30.5023 74.5693 30.708 75.0709 30.9202C75.4227 31.0691 75.9987 31.2245 76.332 31.4255C76.9682 31.8102 77.5849 32.2684 78.1819 32.6898C78.4803 32.9005 79.3974 33.3623 79.443 33.7427L79.4419 33.7312Z" fill="#00618A"/>
<path fill-rule="evenodd" clip-rule="evenodd" d="M60.6522 17.6841C60.3439 17.6783 60.1261 17.7176 59.8955 17.7683V17.8105H59.9376C60.0844 18.1133 60.3439 18.308 60.5257 18.5687L60.9463 19.453L60.9884 19.4108C61.2486 19.2269 61.368 18.933 61.3662 18.4841C61.2618 18.3741 61.2464 18.2362 61.1559 18.1048C61.0358 17.9298 60.7995 17.8305 60.6515 17.6833L60.6522 17.6841Z" fill="#00618A"/>
<path fill-rule="evenodd" clip-rule="evenodd" d="M78.4551 45.8663C78.4551 46.927 79.2917 47.642 80.2273 47.642C81.163 47.642 81.9996 46.927 81.9996 45.8663C81.9996 44.8056 81.163 44.0906 80.2273 44.0906C79.2917 44.0906 78.4551 44.8056 78.4551 45.8663ZM81.6025 45.8663C81.6025 46.6713 80.9883 47.2727 80.2266 47.2727C79.4567 47.2727 78.8507 46.6713 78.8507 45.8663C78.8507 45.0613 79.456 44.4599 80.2266 44.4599C80.9876 44.4599 81.6025 45.0613 81.6025 45.8663ZM80.7042 46.8799H81.101L80.52 45.9899C80.8319 45.9566 81.0678 45.8049 81.0678 45.4356C81.0678 45.0234 80.8076 44.8534 80.3072 44.8534H79.5176V46.8802H79.858V46.0041H80.1746L80.7039 46.8802L80.7042 46.8799ZM79.858 45.7191V45.137H80.2501C80.4533 45.137 80.6993 45.1749 80.6993 45.412C80.6993 45.6959 80.4772 45.7199 80.2216 45.7199H79.858V45.7191Z" fill="#E48E00"/>
</g>
<defs>
<clipPath id="clip0_426_68">
<rect width="73" height="38" fill="white" transform="translate(9 13)"/>
</clipPath>
</defs>
</svg>
